<?xml version="1.0" standalone="no"?><!DOCTYPE svg PUBLIC "-//W3C//DTD SVG 1.1//EN" "http://www.w3.org/Graphics/SVG/1.1/DTD/svg11.dtd"><svg t="1497497685691" class="icon" style="" viewBox="0 0 1024 1024" version="1.1" xmlns="http://www.w3.org/2000/svg" p-id="6243" xmlns:xlink="http://www.w3.org/1999/xlink" width="200" height="200"><defs><style type="text/css"></style></defs><path d="M815.36 916.48h-50.56v-101.12h-101.12V714.24h-101.12v-50.56h-101.12v-71.90016c-30.99648 13.60896-65.12128 21.34016-101.12 21.34016C220.7232 613.12 107.52 499.96288 107.52 360.32S220.7232 107.52 360.32 107.52s252.8 113.15712 252.8 252.8c0 35.99872-7.78752 70.12352-21.34016 101.12h71.90016v101.12l252.8 202.24V916.48h-101.12zM309.76 208.64c-55.81824 0-101.12 45.30176-101.12 101.12s45.30176 101.12 101.12 101.12 101.12-45.30176 101.12-101.12-45.30176-101.12-101.12-101.12z" p-id="6244" fill="#ffffff"></path></svg>