<?xml version="1.0" standalone="no"?><!DOCTYPE svg PUBLIC "-//W3C//DTD SVG 1.1//EN" "http://www.w3.org/Graphics/SVG/1.1/DTD/svg11.dtd"><svg t="1497497585839" class="icon" style="" viewBox="0 0 1024 1024" version="1.1" xmlns="http://www.w3.org/2000/svg" p-id="4029" xmlns:xlink="http://www.w3.org/1999/xlink" width="200" height="200"><defs><style type="text/css"></style></defs><path d="M578.624 277.44m-57.088 0a0.892 0.892 0 1 0 114.176 0 0.892 0.892 0 1 0-114.176 0Z" p-id="4030" fill="#ffffff"></path><path d="M235.84 277.44m-57.088 0a0.892 0.892 0 1 0 114.176 0 0.892 0.892 0 1 0-114.176 0Z" p-id="4031" fill="#ffffff"></path><path d="M407.232 277.44m-57.088 0a0.892 0.892 0 1 0 114.176 0 0.892 0.892 0 1 0-114.176 0Z" p-id="4032" fill="#ffffff"></path><path d="M922.304 393.92l-115.008 0L807.296 154.112c0-63.04-51.136-114.24-114.24-114.24L121.984 39.872c-63.104 0-114.24 51.2-114.24 114.24l0 342.72c0 62.976 51.136 114.112 114.24 114.112l113.984 0 0 58.496c0 21.376 12.032 40.576 31.232 49.984 8 3.84 16.384 5.952 24.768 5.952 12.032 0 24-4.032 33.92-11.648l120.384-92.864 0 131.904c0 51.904 42.112 94.016 93.952 94.016l178.816 0 101.248 78.272c8.832 6.656 19.136 10.048 29.888 10.048 7.36 0 14.848-1.728 21.696-5.056 16.96-8.384 27.456-25.28 27.456-44.032L899.328 846.72l22.976 0c51.904 0 94.016-42.112 94.016-94.016L1016.32 488.064C1016.32 436.096 974.208 393.92 922.304 393.92zM293.056 669.44 293.056 582.4c0-15.744-12.736-28.48-28.544-28.48L121.984 553.92c-31.552 0-57.152-25.536-57.152-57.088L64.832 154.112c0-31.616 25.536-57.152 57.152-57.152l571.072 0c31.744 0 57.28 25.472 57.28 57.152l0 342.72c0 31.488-25.472 57.088-57.28 57.088l-243.2 0c-6.272 0-12.352 1.92-17.344 5.824L293.056 669.44zM960.384 752.768c0 21.12-17.088 38.272-38.08 38.272l-51.072 0c-15.36 0-27.904 12.48-27.904 27.904l0 54.848-98.048-77.056c-4.864-3.904-10.752-5.888-17.088-5.888l-188.032 0.192c-20.992 0-38.144-17.152-38.144-38.272L502.016 610.944l190.912 0c63.104 0 114.24-51.136 114.24-114.112L807.168 449.856l115.008 0c20.992 0 38.08 17.152 38.08 38.208L960.256 752.768z" p-id="4033" fill="#ffffff"></path></svg>