<?xml version="1.0" standalone="no"?><!DOCTYPE svg PUBLIC "-//W3C//DTD SVG 1.1//EN" "http://www.w3.org/Graphics/SVG/1.1/DTD/svg11.dtd"><svg t="1497578810256" class="icon" style="" viewBox="0 0 1024 1024" version="1.1" xmlns="http://www.w3.org/2000/svg" p-id="18866" xmlns:xlink="http://www.w3.org/1999/xlink" width="200" height="200"><defs><style type="text/css"></style></defs><path d="M921.6 0 102.4 0C46.08 0 0 46.08 0 102.4l0 819.2c0 56.32 46.08 102.4 102.4 102.4l819.2 0c56.32 0 102.4-46.08 102.4-102.4L1024 102.4C1024 46.08 977.92 0 921.6 0zM839.68 901.12c-61.44 61.44-281.6 5.12-501.76-215.04C122.88 465.92 66.56 245.76 122.88 184.32c51.2-51.2 112.64-143.36 209.92-25.6 92.16 117.76 46.08 148.48-5.12 204.8-35.84 35.84 40.96 133.12 122.88 209.92 81.92 81.92 174.08 158.72 209.92 122.88 51.2-51.2 87.04-97.28 204.8-5.12C983.04 783.36 890.88 849.92 839.68 901.12z" p-id="18867" fill="#ffffff"></path></svg>