<?xml version="1.0" standalone="no"?><!DOCTYPE svg PUBLIC "-//W3C//DTD SVG 1.1//EN" "http://www.w3.org/Graphics/SVG/1.1/DTD/svg11.dtd"><svg t="1493425693120" class="icon" style="" viewBox="0 0 1025 1024" version="1.1" xmlns="http://www.w3.org/2000/svg" p-id="19694" xmlns:xlink="http://www.w3.org/1999/xlink" width="200.1953125" height="200"><defs><style type="text/css"></style></defs><path d="M919.19044 232.187l-79.746 0 0-69.952c0-57.922-47.01-104.93-104.932-104.93L104.93444 57.305c-57.922 0-104.93 47.008-104.93 104.93l0 419.722c0 57.92 47.008 104.924 104.93 104.924l79.746 0 0 69.956c0 57.924 47.01 104.932 104.928 104.932l174.886 0 139.908 104.928 139.902-104.928 174.886 0c57.92 0 104.93-47.008 104.93-104.932L1024.12044 337.119C1024.12044 279.197 977.11044 232.187 919.19044 232.187zM184.68044 337.119l0 294.15-44.77 0c-57.922 0-84.29-26.368-84.29-84.288l0-349.77c0-57.92 26.368-84.29 84.29-84.29l559.624 0c57.922 0 84.292 26.37 84.292 84.29l0 34.976L289.60844 232.187C231.69044 232.187 184.68044 279.197 184.68044 337.119zM968.50244 721.861c0 57.92-26.368 84.288-84.288 84.288L726.81644 806.149l-122.414 94.44-122.42-94.44L324.58644 806.149c-57.922 0-84.288-26.368-84.288-84.288L240.29844 372.095c0-57.922 26.366-84.29 84.288-84.29l559.628 0c57.92 0 84.288 26.368 84.288 84.29L968.50244 721.861zM338.44944 546.981c0 31.91 25.872 57.782 57.784 57.782 31.913 0 57.785-25.872 57.785-57.782 0-31.916-25.872-57.786-57.785-57.786C364.32144 489.195 338.44944 515.065 338.44944 546.981zM546.61644 546.981c0 31.91 25.872 57.782 57.786 57.782 31.91 0 57.782-25.872 57.782-57.782 0-31.916-25.872-57.786-57.782-57.786C572.48844 489.195 546.61644 515.065 546.61644 546.981zM754.78044 546.981c0 31.91 25.872 57.782 57.784 57.782 31.914 0 57.786-25.872 57.786-57.782 0-31.916-25.872-57.786-57.786-57.786C780.65244 489.195 754.78044 515.065 754.78044 546.981z" p-id="19695"></path></svg>