<?xml version="1.0" standalone="no"?><!DOCTYPE svg PUBLIC "-//W3C//DTD SVG 1.1//EN" "http://www.w3.org/Graphics/SVG/1.1/DTD/svg11.dtd"><svg t="1493426071126" class="icon" style="" viewBox="0 0 1000 1000" version="1.1" xmlns="http://www.w3.org/2000/svg" p-id="29491" xmlns:xlink="http://www.w3.org/1999/xlink" width="200" height="200"><defs><style type="text/css"></style></defs><path d="M895.8893 317.4907c-22.011-52.0407-53.5179-98.774-93.6463-138.9018-40.1274-40.1268-86.8627-71.6334-138.9055-93.6435-53.8907-22.7925-111.1282-34.3487-170.1216-34.3487-58.9934 0-116.231 11.5562-170.1216 34.3487-52.0438 22.0101-98.7791 53.5167-138.9065 93.6435-40.1284 40.1268-71.6354 86.8601-93.6463 138.9018-22.7915 53.8885-34.3481 111.1227-34.3481 170.1117 0 58.99 11.5566 116.2232 34.3481 170.1127 22.011 52.0417 53.5179 98.776 93.6463 138.9038 40.1284 40.1278 86.8637 71.6354 138.9065 93.6465 53.8917 22.7935 111.1282 34.3497 170.1216 34.3497 58.9934 0 116.231-11.5562 170.1216-34.3497 52.0428-22.0111 98.7781-53.5187 138.9065-93.6465 40.1274-40.1278 71.6344-86.8621 93.6453-138.9038 22.7925-53.8895 34.3481-111.1227 34.3481-170.1127C930.2384 428.6134 918.6818 371.3792 895.8893 317.4907zM493.2158 886.9237c-220.1917 0-399.3296-179.1345-399.3296-399.3213 0-220.1827 179.1389-399.3133 399.3296-399.3133s399.3286 179.1315 399.3286 399.3133C892.5454 707.7891 713.4076 886.9237 493.2158 886.9237zM524.256 650.8817h-69.1439553004736c-2.9741 0-5.3846 2.4104-5.3846 5.3853v68.76737571926233c0 2.975 2.4115 5.3853 5.3846 5.3853h69.1439553004736c2.9751 0 5.3846-2.4104 5.3846-5.3853v-68.76737571926233C529.6406 653.2921 527.2312 650.8817 524.256 650.8817zM608.5174 257.3405c-30.0289-26.0453-69.8205-39.2524-118.2717-39.2524-45.7459 0-84.1044 13.4059-114.0114 39.846-29.9649 26.492-47.106 62.7784-50.9465 107.8509-0.1279 1.502 0.3798 2.989 1.3991 4.0992 1.0204 1.1102 2.4584 1.7418 3.9665 1.7418h65.40633616386361c2.6603 0 4.9219-1.9417 5.3236-4.5719 9.0852-59.5436 38.3975-88.489 89.6109-88.489 26.0574 0 47.2959 7.9036 63.1228 23.4911 16.0208 15.7903 23.8098 35.441 23.8098 60.0753 0 12.2557-2.9351 24.0497-8.7234 35.0522-5.8823 11.1714-21.6712 27.6702-46.9291 49.0398-26.3662 22.3079-44.7405 43.7623-54.6112 63.7678-10.0566 20.3712-14.9455 51.1024-14.9455 93.9513 0 2.974 2.4115 5.3843 5.3846 5.3843h59.05238363162666c2.9741 0 5.3846-2.4104 5.3846-5.3843 0-30.7152 2.9791-52.7822 8.8554-65.5915 5.8503-12.7623 22.4577-30.4783 49.3616-52.6543 28.0821-23.1483 47.5207-44.7646 57.7762-64.2484 10.3324-19.6317 15.5701-41.0971 15.5701-63.8017C654.1023 317.3308 638.7661 283.5827 608.5174 257.3405z" p-id="29492"></path></svg>