<?xml version="1.0" standalone="no"?><!DOCTYPE svg PUBLIC "-//W3C//DTD SVG 1.1//EN" "http://www.w3.org/Graphics/SVG/1.1/DTD/svg11.dtd"><svg t="1493423213140" class="icon" style="" viewBox="0 0 1054 1024" version="1.1" xmlns="http://www.w3.org/2000/svg" p-id="5337" xmlns:xlink="http://www.w3.org/1999/xlink" width="205.859375" height="200"><defs><style type="text/css"></style></defs><path d="M936.181549 1023.868338 116.981549 1023.868338C52.401414 1023.868338 0 971.532755 0 906.886789L0 351.07631c0-43.250916 23.764963-80.708711 58.787014-100.852973 0-0.131662-0.131662-0.197493-0.131662-0.329155C54.442173 234.292253 864.557506 1.382449 864.557506 1.382449c33.376278 0 44.699196 31.269688 42.395114 56.877917l0 175.768563 29.22893 0c64.580135 0 116.981549 52.401414 116.981549 116.981549l0 175.505239 0 234.094761 0 146.27631C1053.163099 971.532755 1000.761684 1023.868338 936.181549 1023.868338zM848.42893 66.423401l-570.754098 167.67136 570.754098 0L848.42893 66.423401zM994.639409 585.105239l-204.734169 0 0 116.981549 204.734169 0L994.639409 585.105239zM994.639409 760.610479l-204.734169 0c-32.388814 0-58.52369-26.134876-58.52369-58.52369L731.381549 585.105239c0-32.322983 26.069045-58.589521 58.52369-58.589521l204.734169 0L994.639409 351.07631c0-32.322983-26.134876-58.52369-58.52369-58.52369L116.981549 292.55262c-32.322983 0-58.52369 26.134876-58.52369 58.52369l0 555.810479c0 32.322983 26.200707 58.52369 58.52369 58.52369l819.134169 0c32.322983 0 58.52369-26.134876 58.52369-58.52369L994.639409 760.610479z" p-id="5338"></path></svg>