<?xml version="1.0" standalone="no"?><!DOCTYPE svg PUBLIC "-//W3C//DTD SVG 1.1//EN" "http://www.w3.org/Graphics/SVG/1.1/DTD/svg11.dtd"><svg t="1493426004796" class="icon" style="" viewBox="0 0 1025 1024" version="1.1" xmlns="http://www.w3.org/2000/svg" p-id="27406" xmlns:xlink="http://www.w3.org/1999/xlink" width="200.1953125" height="200"><defs><style type="text/css"></style></defs><path d="M997.76 423.232c1.28 0 2.56 0 4.032 0.128 5.76 0.256 11.392-1.856 15.488-5.888C1021.632 413.44 1024 408 1024 402.176L1024 222.912c0-28.352-23.04-51.392-51.52-51.392L51.456 171.52C23.04 171.52 0 194.56 0 222.912l0 578.24c0 28.224 23.104 51.264 51.456 51.264l921.088 0c28.416 0 51.52-22.976 51.52-51.264L1024.064 620.224c0-5.888-2.368-11.456-6.656-15.36-4.096-4.032-9.728-6.208-15.488-5.888-1.472 0-2.816 0.064-4.032 0.064-48.576 0-88.064-39.424-88.064-87.936S949.184 423.232 997.76 423.232L997.76 423.232zM981.44 640.512l0 160.64c0 4.864-4.032 8.896-8.96 8.896L51.456 810.048c-4.928 0-8.896-4.032-8.896-8.896L42.56 222.912c0-4.928 3.968-8.896 8.896-8.896l921.088 0c4.928 0 8.96 4.032 8.96 8.896l0 158.912C917.056 389.824 867.2 444.8 867.2 511.168S917.056 632.448 981.44 640.512L981.44 640.512zM981.44 640.512" p-id="27407"></path><path d="M182.464 266.048l21.312 0 0 26.048L182.464 292.096 182.464 266.048 182.464 266.048zM182.464 266.048" p-id="27408"></path><path d="M182.464 440.704l21.312 0 0 56.448L182.464 497.152 182.464 440.704 182.464 440.704zM182.464 440.704" p-id="27409"></path><path d="M182.464 338.176l21.312 0 0 56.448L182.464 394.624 182.464 338.176 182.464 338.176zM182.464 338.176" p-id="27410"></path><path d="M182.464 645.76l21.312 0 0 56.512L182.464 702.272 182.464 645.76 182.464 645.76zM182.464 645.76" p-id="27411"></path><path d="M182.464 543.232l21.312 0L203.776 599.68 182.464 599.68 182.464 543.232 182.464 543.232zM182.464 543.232" p-id="27412"></path><path d="M182.464 748.224l21.312 0L203.776 774.4 182.464 774.4 182.464 748.224 182.464 748.224zM182.464 748.224" p-id="27413"></path><path d="M733.568 271.936l21.376 0 0 25.984-21.376 0L733.568 271.936 733.568 271.936zM733.568 271.936" p-id="27414"></path><path d="M733.568 638.016l21.376 0 0 54.4-21.376 0L733.568 638.016 733.568 638.016zM733.568 638.016" p-id="27415"></path><path d="M733.568 539.456l21.376 0 0 54.336-21.376 0L733.568 539.456 733.568 539.456zM733.568 539.456" p-id="27416"></path><path d="M733.568 342.208l21.376 0 0 54.336-21.376 0L733.568 342.208 733.568 342.208zM733.568 342.208" p-id="27417"></path><path d="M733.568 440.832l21.376 0 0 54.272-21.376 0L733.568 440.832 733.568 440.832zM733.568 440.832" p-id="27418"></path><path d="M733.568 736.512l21.376 0 0 26.112-21.376 0L733.568 736.512 733.568 736.512zM733.568 736.512" p-id="27419"></path><path d="M557.184 341.376c0 0-83.776 136.512-86.848 144.96L469.44 486.336C460.48 465.856 424.448 417.536 382.656 341.376L334.528 341.376l91.584 153.408L350.656 494.784l0 33.92 96.576 0 0 41.408L350.656 570.112l0 34.368 96.576 0 0 88.32 42.688 0 0-88.32 93.632 0L583.552 570.112 489.92 570.112 489.92 528.704l93.632 0 0-33.92L509.12 494.784l93.504-153.408L557.184 341.376 557.184 341.376zM557.184 341.376" p-id="27420"></path></svg>