<?xml version="1.0" standalone="no"?><!DOCTYPE svg PUBLIC "-//W3C//DTD SVG 1.1//EN" "http://www.w3.org/Graphics/SVG/1.1/DTD/svg11.dtd"><svg t="1493423462203" class="icon" style="" viewBox="0 0 1024 1024" version="1.1" xmlns="http://www.w3.org/2000/svg" p-id="12744" xmlns:xlink="http://www.w3.org/1999/xlink" width="200" height="200"><defs><style type="text/css"></style></defs><path d="M720.256 576l0 160c0 8.832 7.168 16 16 16l160 0c8.832 0 16-7.168 16-16s-7.168-16-16-16l-144 0L752.256 576c0-8.832-7.168-16-16-16S720.256 567.168 720.256 576z" p-id="12745"></path><path d="M928 320c52.928 0 96-43.072 96-96L1024 96c0-52.928-43.072-96-96-96L96 0C43.072 0 0 43.072 0 96l0 128c0 52.928 43.072 96 96 96l16.512 0 0 526.304C112.512 873.728 135.36 896 163.488 896L496 896c0.224 0 0.416-0.128 0.608-0.128C548.352 973.056 636.32 1024 736 1024c158.816 0 288-129.184 288-288 0-92.288-43.808-174.336-111.488-227.072L912.512 320 928 320zM992 736c0 141.376-114.624 256-256 256s-256-114.624-256-256 114.624-256 256-256S992 594.624 992 736zM736 448c-158.816 0-288 129.184-288 288 0 46.016 11.104 89.376 30.4 128l-314.88 0c-10.464 0-19.008-7.936-19.008-17.696L144.512 320l736 0.896 0 166.336C837.952 462.464 788.704 448 736 448zM96 288C60.64 288 32 259.36 32 224L32 96c0-35.36 28.64-64 64-64l832 0c35.36 0 64 28.64 64 64l0 128c0 35.36-28.64 64-64 64L125.408 288 112.512 288l0 0L96 288z" p-id="12746"></path></svg>