<?xml version="1.0" standalone="no"?><!DOCTYPE svg PUBLIC "-//W3C//DTD SVG 1.1//EN" "http://www.w3.org/Graphics/SVG/1.1/DTD/svg11.dtd"><svg t="1493452455621" class="icon" style="" viewBox="0 0 1024 1024" version="1.1" xmlns="http://www.w3.org/2000/svg" p-id="3394" xmlns:xlink="http://www.w3.org/1999/xlink" width="200" height="200"><defs><style type="text/css"></style></defs><path d="M902.103766 316.933279c-9.284457 0-18.127869 1.857301-26.187429 5.204535C838.82558 164.704203 696.740538 47.402613 526.804171 47.402613c-169.934321 0-312.021409 117.30159-349.112166 274.735202-8.058536-3.348258-16.901948-5.204535-26.186406-5.204535-37.498032 0-67.893296 30.166043-67.893296 67.379597l0 250.279207c0 37.213553 30.395264 67.381643 67.893296 67.381643 34.974559 0 63.760163-26.248827 67.476811-59.975976 54.021358 115.0145 171.529655 194.741309 307.821761 194.741309 136.289036 0 253.797333-79.724763 307.820738-194.736193 2.50096 22.672372 16.340153 41.950438 35.762505 52.159964C821.672922 790.821263 726.180034 860.193237 613.351316 873.062336c-8.578376-21.281699-29.532617-36.322254-54.03773-36.322254-32.138978 0-58.193377 25.857924-58.193377 57.757448 0 31.896454 26.054399 57.755402 58.193377 57.755402 26.119891 0 48.221258-17.080004 55.583946-40.599673 131.191948-13.909801 241.800092-96.132454 295.005874-210.133881 33.818223-3.841491 60.090587-32.331359 60.090587-66.925249L969.993992 384.312876C969.992969 347.099323 939.597705 316.933279 902.103766 316.933279zM526.804171 778.982634c-97.962126 0-180.99933-62.729693-210.937177-149.890822L737.743394 629.091812C707.805548 716.252941 624.76732 778.982634 526.804171 778.982634zM526.804171 162.915463c-122.776278 0-230.3012 64.703651-289.911856 161.613818 34.901905-126.439714 151.437038-219.36922 289.911856-219.36922 138.471748 0 255.004835 92.926436 289.908786 219.362057C757.100254 227.616044 649.575332 162.915463 526.804171 162.915463z" p-id="3395"></path><path d="M902.103766 316.933279c-9.284457 0-18.127869 1.857301-26.187429 5.204535C838.82558 164.704203 696.740538 47.402613 526.804171 47.402613c-169.934321 0-312.021409 117.30159-349.112166 274.735202-8.058536-3.348258-16.901948-5.204535-26.186406-5.204535-37.498032 0-67.893296 30.166043-67.893296 67.379597l0 250.279207c0 37.213553 30.395264 67.381643 67.893296 67.381643 34.974559 0 63.760163-26.248827 67.476811-59.975976 54.021358 115.0145 171.529655 194.741309 307.821761 194.741309 136.289036 0 253.797333-79.724763 307.820738-194.736193 2.50096 22.672372 16.340153 41.950438 35.762505 52.159964C821.672922 790.821263 726.180034 860.193237 613.351316 873.062336c-8.578376-21.281699-29.532617-36.322254-54.03773-36.322254-32.138978 0-58.193377 25.857924-58.193377 57.757448 0 31.896454 26.054399 57.755402 58.193377 57.755402 26.119891 0 48.221258-17.080004 55.583946-40.599673 131.191948-13.909801 241.800092-96.132454 295.005874-210.133881 33.818223-3.841491 60.090587-32.331359 60.090587-66.925249L969.993992 384.312876C969.992969 347.099323 939.597705 316.933279 902.103766 316.933279zM526.804171 778.982634c-97.962126 0-180.99933-62.729693-210.937177-149.890822L737.743394 629.091812C707.805548 716.252941 624.76732 778.982634 526.804171 778.982634zM526.804171 162.915463c-122.776278 0-230.3012 64.703651-289.911856 161.613818 34.901905-126.439714 151.437038-219.36922 289.911856-219.36922 138.471748 0 255.004835 92.926436 289.908786 219.362057C757.100254 227.616044 649.575332 162.915463 526.804171 162.915463z" p-id="3396"></path></svg>