<?xml version="1.0" standalone="no"?><!DOCTYPE svg PUBLIC "-//W3C//DTD SVG 1.1//EN" "http://www.w3.org/Graphics/SVG/1.1/DTD/svg11.dtd"><svg t="1493423114034" class="icon" style="" viewBox="0 0 1024 1024" version="1.1" xmlns="http://www.w3.org/2000/svg" p-id="3242" xmlns:xlink="http://www.w3.org/1999/xlink" width="200" height="200"><defs><style type="text/css"></style></defs><path d="M966.045 307.981c-23.788-56.238-57.839-106.746-101.21-150.116-43.37-43.371-93.878-77.422-150.116-101.211-58.228-24.629-120.079-37.117-183.833-37.117s-125.605 12.487-183.833 37.117c-56.238 23.788-106.747 57.839-150.116 101.211-43.371 43.371-77.422 93.878-101.211 150.116-24.629 58.228-37.117 120.079-37.117 183.831 0 63.755 12.487 125.605 37.117 183.833 23.788 56.239 57.839 106.747 101.211 150.117 43.371 43.37 93.878 77.422 150.116 101.21 58.228 24.628 120.079 37.117 183.831 37.117 63.755 0 125.605-12.489 183.833-37.117 56.238-23.788 106.747-57.839 150.116-101.21 43.37-43.371 77.422-93.878 101.21-150.117 24.629-58.228 37.117-120.079 37.117-183.833 0.002-63.751-12.485-125.604-37.116-183.831zM531.748 546.734c-92.463 0-167.685-75.232-167.685-167.703 0-92.463 75.225-167.685 167.685-167.685 92.481 0 167.718 75.225 167.718 167.685 0 92.473-75.237 167.703-167.718 167.703zM350.804 657.101c51.69-41.062 113.989-62.767 180.161-62.767 66.080 0 128.309 21.658 179.963 62.63 49.241 39.062 84.861 93.68 100.575 154.1-34.337 30.252-73.067 54.602-115.181 72.414-52.372 22.155-108.032 33.388-165.435 33.388-57.403 0-113.063-11.232-165.438-33.387-42.064-17.791-80.766-42.121-115.084-72.338 15.694-60.381 51.258-114.973 100.438-154.043zM740.281 619.966c-29.151-23.125-61.643-41.136-96.571-53.533-1.396-0.496-2.81-0.987-4.239-1.47 29.799-17.315 55.097-41.568 73.724-70.819 21.916-34.417 33.5-74.221 33.5-115.114 0-118.506-96.425-214.915-214.945-214.915-118.506 0-214.915 96.411-214.915 214.915 0 40.772 11.52 80.477 33.313 114.827 18.514 29.179 43.669 53.412 73.313 70.764-1.808 0.607-3.603 1.227-5.378 1.858-34.969 12.426-67.486 30.475-96.652 53.643-49.618 39.417-87.998 93.539-108.907 153.298-30.675-34.602-55.31-73.633-73.302-116.169-22.154-52.375-33.386-108.036-33.386-165.437 0-57.401 11.233-113.062 33.386-165.437 21.407-50.61 52.060-96.071 91.108-135.119 39.051-39.050 84.511-69.703 135.119-91.108 52.375-22.154 108.037-33.386 165.438-33.386 57.401 0 113.061 11.233 165.435 33.386 50.614 21.407 96.076 52.061 135.121 91.108 39.046 39.046 69.7 84.508 91.108 135.119 22.153 52.374 33.386 108.035 33.386 165.437 0 57.402-11.232 113.063-33.387 165.438-17.97 42.495-42.576 81.494-73.215 116.074-20.939-59.805-59.37-113.948-109.055-153.36z" p-id="3243"></path></svg>